<svg version="1.1" xmlns="http://www.w3.org/2000/svg" viewBox="0 0 1927.7845052083335 510.06119791666663" width="3855.569010416667" height="1020.1223958333333">
  <!-- svg-source:excalidraw -->
  
  <defs>
    <style class="style-fonts">
      @font-face {
        font-family: "Virgil";
        src: url("https://excalidraw.com/Virgil.woff2");
      }
      @font-face {
        font-family: "Cascadia";
        src: url("https://excalidraw.com/Cascadia.woff2");
      }
    </style>
  </defs>
  <rect x="0" y="0" width="1927.7845052083335" height="510.06119791666663" fill="#ffffff"></rect><g stroke-linecap="round" transform="translate(10 225.78515625) rotate(0 92.98242187499994 56.915364583333314)"><path d="M28.46 0 M28.46 0 C61.78 1.89, 91.42 -4.45, 157.51 0 M157.51 0 C173.48 2.99, 183.46 7.26, 185.96 28.46 M185.96 28.46 C182.6 47.99, 186.13 75.7, 185.96 85.37 M185.96 85.37 C185.07 101.52, 180.32 114.06, 157.51 113.83 M157.51 113.83 C126.19 112.69, 101.66 115.09, 28.46 113.83 M28.46 113.83 C10.05 111.47, -1.63 106.67, 0 85.37 M0 85.37 C-3.89 70.22, 2.39 57.25, 0 28.46 M0 28.46 C2.97 9.69, 10.06 -1.84, 28.46 0" stroke="#000000" stroke-width="2.5" fill="none" stroke-dasharray="8 10"></path></g><g transform="translate(27.2624893188476 257.7005208333333) rotate(0 75.71993255615237 25)"><text x="75.71993255615234" y="0" font-family="Virgil, Segoe UI Emoji" font-size="20px" fill="#000000" text-anchor="middle" style="white-space: pre;" direction="ltr" dominant-baseline="text-before-edge">bunny producer </text><text x="75.71993255615234" y="25" font-family="Virgil, Segoe UI Emoji" font-size="20px" fill="#000000" text-anchor="middle" style="white-space: pre;" direction="ltr" dominant-baseline="text-before-edge">(ruby)</text></g><g stroke-linecap="round" transform="translate(430.646484375 245.20768229166663) rotate(0 96.162109375 35.279296875)"><path d="M12.89 17.83 C12.89 17.83, 12.89 17.83, 12.89 17.83 M12.89 17.83 C12.89 17.83, 12.89 17.83, 12.89 17.83 M1.89 40.14 C16.32 28.64, 17.18 19.45, 31.68 9.05 M3.18 37.47 C13.67 30.21, 24.63 19.91, 27.88 12.78 M10.25 49.55 C18.52 33.43, 36.86 19.64, 39.99 5.98 M8.71 45.11 C19.01 33.36, 31.88 22.18, 42.06 6.22 M13.51 56.89 C27.86 35.48, 35.33 23.72, 47.45 9.14 M12.48 53.86 C22.09 42.3, 30.82 31.53, 49.93 12.03 M19.6 58.48 C35.42 47.78, 46.44 32.66, 58.21 13.68 M19.7 57.71 C34.49 42.15, 51.13 24.66, 61.26 10.97 M27.49 64.86 C41.23 51.66, 51.57 34.84, 70.11 6.46 M28.39 60.16 C40.37 49.27, 50.05 34.75, 74.68 10.42 M33.17 63.4 C46.7 48.21, 62.18 31.65, 87.12 7.5 M36.24 64.9 C58.49 41.76, 76 20.73, 84.82 8 M43.8 70.4 C58.43 48.42, 74.35 30.96, 94.91 10.17 M45.52 66.18 C54.25 55.64, 67.54 43.71, 98.78 8.03 M53.91 69.48 C76.72 41.84, 101.19 14.89, 105.49 8.76 M52.1 71.38 C72.75 48.91, 89.05 24.18, 107.56 7.18 M58.11 72.22 C81.58 47.95, 102.92 29.98, 117.54 1.88 M60.97 71.82 C73.38 55.06, 90.11 38.09, 119.15 6.15 M67.28 72.54 C87.23 51.05, 108.51 22.41, 131.04 2.86 M71.28 73.31 C84.51 57.39, 97.82 40.19, 128.04 6.19 M81.95 74.53 C99.16 53.46, 112.47 32.14, 139.51 10.11 M80.47 74.19 C103.12 50.69, 122.97 25.34, 140.23 7.67 M90.51 73.11 C111.53 57.68, 122.09 38.12, 150.04 12.45 M91.34 74.19 C102.43 57.18, 116.83 43.92, 148.12 9.64 M103.94 76.92 C118.95 54.26, 131.76 36.87, 154.13 12.56 M101.62 75.48 C117.37 56.5, 132.04 38.07, 158.1 9.4 M112.66 73.41 C125.66 61.52, 139.22 48.06, 164.49 16.56 M113.52 71.97 C124.19 57.87, 140.62 40.56, 166.21 14.29 M127.89 69.21 C141.16 51.63, 155.39 42.22, 174.5 20.14 M126 71.85 C135.83 59.02, 149.65 44.72, 174.4 16.05 M139.9 70.81 C157.38 49.12, 170.96 29.13, 182.96 17.69 M137.85 70.47 C148.01 58.79, 153.29 49.35, 178.07 22.08 M150.03 61.37 C166.26 51.15, 169.27 44.54, 189.57 24.92 M150.41 65.32 C161.99 54.72, 174.24 42.33, 186.38 26.25 M166.91 63.65 C177.96 49.06, 182.68 42.81, 187.81 33.04 M168.71 59.18 C172.45 52.8, 180.53 46.64, 189.98 33.32" stroke="#a5d8ff" stroke-width="1" fill="none"></path><path d="M125.5 1.15 C138.52 1.8, 151.83 5.33, 161.81 9.02 C171.79 12.7, 180.52 18.16, 185.39 23.27 C190.26 28.37, 192.11 34.64, 191.06 39.64 C190.01 44.65, 186.05 49.47, 179.1 53.29 C172.14 57.11, 161.11 59.64, 149.31 62.55 C137.52 65.46, 122.17 69.53, 108.33 70.73 C94.48 71.94, 79.15 71.29, 66.26 69.77 C53.36 68.24, 40.64 65, 30.95 61.6 C21.27 58.19, 13.34 53.91, 8.14 49.33 C2.95 44.74, -1.02 39.35, -0.21 34.09 C0.59 28.83, 5.69 22.19, 12.97 17.74 C20.25 13.3, 31.94 10.02, 43.45 7.42 C54.95 4.82, 61.89 1.58, 81.97 2.16 C102.06 2.73, 146.48 6.92, 163.94 10.87 C181.39 14.82, 187.34 25.13, 186.7 25.86" stroke="#000000" stroke-width="2.5" fill="none" stroke-dasharray="8 10"></path></g><g transform="translate(476.6117705752546 268.04074911086076) rotate(0 50.19994354248041 12.5)"><text x="50.19994354248047" y="0" font-family="Virgil, Segoe UI Emoji" font-size="20px" fill="#000000" text-anchor="middle" style="white-space: pre;" direction="ltr" dominant-baseline="text-before-edge">topic_logs</text></g><g stroke-linecap="round"><g transform="translate(211.30859375 280.07682291666663) rotate(0 110.30258245654403 1.2571087957670102)"><path d="M0.67 -0.3 C37.03 -0.15, 183.64 2.52, 219.93 2.82" stroke="#000000" stroke-width="2.5" fill="none" stroke-dasharray="8 10"></path></g><g transform="translate(211.30859375 280.07682291666663) rotate(0 110.30258245654403 1.2571087957670102)"><path d="M220.45 4.55 L204.24 10.49 L208.65 -6.1 L216.74 0.48" stroke="none" stroke-width="0" fill="#000000" fill-rule="evenodd"></path><path d="M219.61 4.65 C216.19 5.34, 209.74 4.97, 205.69 8.29 M208.18 10.47 C208.26 2.46, 207.45 0.99, 206.55 -3.49 M206.72 -3.03 C210.45 -2.83, 213.62 0.6, 221.48 5.02 M219.93 2.82 C219.93 2.82, 219.93 2.82, 219.93 2.82" stroke="#000000" stroke-width="2.5" fill="none"></path></g></g><mask></mask><g transform="translate(436.271484375 342.5006510416665) rotate(0 76.87993621826172 12.5)"><text x="0" y="0" font-family="Virgil, Segoe UI Emoji" font-size="20px" fill="#000000" text-anchor="start" style="white-space: pre;" direction="ltr" dominant-baseline="text-before-edge">RabbitMQ Topic</text></g><g stroke-linecap="round" transform="translate(834.484375 49.65885416666663) rotate(0 251.900390625 35.337890625)"><path d="M4.7 4.09 C4.7 4.09, 4.7 4.09, 4.7 4.09 M4.7 4.09 C4.7 4.09, 4.7 4.09, 4.7 4.09 M2.21 19.15 C8.21 8.57, 11.27 5.25, 18.61 0.28 M2.21 19.15 C4.85 13.88, 9.5 9.11, 18.61 0.28 M2.35 31.19 C12.76 22.26, 15.26 18.36, 29.24 0.25 M2.35 31.19 C10.07 21.44, 20.47 11.46, 29.24 0.25 M2.48 43.23 C18.16 28.79, 29.79 11.48, 39.22 0.97 M2.48 43.23 C15.82 27.56, 31.43 11.39, 39.22 0.97 M2.61 55.27 C20.48 33.46, 34.38 12.59, 49.85 0.93 M2.61 55.27 C11.01 43.93, 21.43 31.08, 49.85 0.93 M5.37 64.29 C24.08 38.96, 45.38 19.26, 60.48 0.9 M5.37 64.29 C16.51 49.39, 29.1 39.22, 60.48 0.9 M10.09 71.05 C25.47 59.03, 34.18 39.83, 71.11 0.86 M10.09 71.05 C19.82 54.49, 33.99 40.66, 71.11 0.86 M18.1 74.03 C32.12 52.96, 49.17 32.87, 81.74 0.83 M18.1 74.03 C38.86 47.03, 62.33 25.42, 81.74 0.83 M28.73 74 C54.36 46.87, 76.73 14.26, 92.37 0.79 M28.73 74 C50.48 51.74, 69.07 30.02, 92.37 0.79 M39.36 73.97 C57.77 47.01, 86.74 26.9, 103 0.76 M39.36 73.97 C51.49 57.2, 65.47 42.06, 103 0.76 M49.99 73.93 C70.26 49.43, 94.99 21.12, 113.63 0.72 M49.99 73.93 C75.4 48.36, 96.84 20.37, 113.63 0.72 M60.62 73.9 C72.02 54.14, 92.64 39.61, 124.26 0.69 M60.62 73.9 C80.84 54.66, 99.36 33.89, 124.26 0.69 M70.59 74.62 C88.73 55.89, 100.99 34.94, 134.89 0.66 M70.59 74.62 C86.49 52.71, 107.52 31.2, 134.89 0.66 M81.22 74.58 C101.59 48.14, 127.87 21.76, 145.52 0.62 M81.22 74.58 C93.44 56.71, 106.79 41.74, 145.52 0.62 M91.85 74.55 C114.64 48.61, 138.22 18.82, 156.15 0.59 M91.85 74.55 C115.36 47.43, 138.69 20.9, 156.15 0.59 M102.48 74.51 C121.61 53.25, 143.85 31.15, 166.78 0.55 M102.48 74.51 C120.08 57.51, 136.69 36.18, 166.78 0.55 M113.12 74.48 C138.06 43.18, 165.6 12.78, 177.41 0.52 M113.12 74.48 C129.69 56.96, 143.13 37.15, 177.41 0.52 M123.75 74.44 C151.02 47.1, 170.12 22.61, 188.04 0.48 M123.75 74.44 C142.26 53.82, 162.09 32.2, 188.04 0.48 M134.38 74.41 C155.1 54.44, 175.26 26.41, 198.67 0.45 M134.38 74.41 C156.5 48.25, 179.43 23.94, 198.67 0.45 M145.01 74.38 C169.57 50.16, 192.04 19.48, 209.3 0.41 M145.01 74.38 C166.46 49.75, 189.79 21.91, 209.3 0.41 M155.64 74.34 C173.66 48.74, 192.06 30.21, 219.93 0.38 M155.64 74.34 C172.28 56.6, 185.06 40.82, 219.93 0.38 M166.27 74.31 C183.81 58.08, 197.93 33.94, 230.56 0.35 M166.27 74.31 C190.85 48.73, 215.9 20.53, 230.56 0.35 M176.9 74.27 C195.65 48.53, 212.32 26.59, 240.53 1.07 M176.9 74.27 C202.07 43.26, 229.42 16.26, 240.53 1.07 M187.53 74.24 C199.91 50.27, 217.29 35.3, 251.16 1.03 M187.53 74.24 C211.97 46.67, 235.63 17.55, 251.16 1.03 M198.16 74.2 C226.25 49.93, 244.29 15.19, 261.79 1 M198.16 74.2 C217.24 50.17, 237.62 28.52, 261.79 1 M208.79 74.17 C222.63 55.47, 245.16 28.87, 272.42 0.96 M208.79 74.17 C228.91 53.58, 245.19 35.42, 272.42 0.96 M219.42 74.13 C245.49 44.3, 264.29 23.01, 283.05 0.93 M219.42 74.13 C234.3 59.65, 249.76 42.68, 283.05 0.93 M230.05 74.1 C245.33 58.48, 261.64 36.39, 293.68 0.89 M230.05 74.1 C253.2 46.32, 274.06 23.32, 293.68 0.89 M240.68 74.07 C254.09 54.15, 274.33 37.5, 304.31 0.86 M240.68 74.07 C259.75 53.47, 277.04 31.13, 304.31 0.86 M251.31 74.03 C271.9 49.96, 294.27 20.52, 314.94 0.82 M251.31 74.03 C271.93 53.32, 287.82 30.64, 314.94 0.82 M261.94 74 C289.34 48.73, 308.21 19.07, 325.57 0.79 M261.94 74 C278.31 54.33, 294.7 37.08, 325.57 0.79 M271.91 74.72 C296.63 47.09, 319.96 25.92, 336.2 0.75 M271.91 74.72 C282.97 60.51, 300.53 43.12, 336.2 0.75 M282.54 74.68 C308.12 45.17, 329.51 19.8, 346.83 0.72 M282.54 74.68 C308.21 47.61, 330.87 18.24, 346.83 0.72 M293.17 74.65 C319.27 48.99, 345.93 16.54, 357.46 0.69 M293.17 74.65 C303.24 61.39, 319.39 43.58, 357.46 0.69 M303.8 74.61 C316.73 59.18, 329.54 45.61, 368.09 0.65 M303.8 74.61 C326.32 46.69, 348.65 21.76, 368.09 0.65 M314.43 74.58 C328.66 54.34, 348.44 36.4, 378.72 0.62 M314.43 74.58 C335.96 47.52, 358.52 20.6, 378.72 0.62 M325.06 74.54 C346.06 43.2, 371.71 17.96, 389.35 0.58 M325.06 74.54 C347.34 47.11, 368.91 24.08, 389.35 0.58 M335.69 74.51 C358.56 49.81, 382.33 21.95, 399.98 0.55 M335.69 74.51 C349.86 60, 361.3 41.84, 399.98 0.55 M346.32 74.47 C362 55.01, 375.53 37.52, 410.61 0.51 M346.32 74.47 C369.28 51.67, 390.07 28.54, 410.61 0.51 M356.95 74.44 C379.24 51.11, 397.25 26.9, 421.24 0.48 M356.95 74.44 C376.63 51.76, 394.45 33.22, 421.24 0.48 M367.58 74.41 C392.36 45.95, 415.43 18.26, 431.22 1.2 M367.58 74.41 C392.5 48.4, 414.42 21.24, 431.22 1.2 M378.21 74.37 C399.23 55.99, 417.91 30.18, 441.85 1.16 M378.21 74.37 C397.01 52.57, 412.66 33.77, 441.85 1.16 M388.84 74.34 C417.27 44.67, 437.15 17.33, 452.48 1.13 M388.84 74.34 C410.83 49.77, 432.88 23.36, 452.48 1.13 M399.47 74.3 C423.69 49.11, 447.13 16.86, 463.11 1.1 M399.47 74.3 C419.58 53.22, 440.76 29.77, 463.11 1.1 M410.1 74.27 C429.99 57.03, 440.72 32.5, 473.74 1.06 M410.1 74.27 C425.07 55.07, 444.39 32.92, 473.74 1.06 M420.73 74.23 C442.5 44.38, 470.39 13.09, 484.37 1.03 M420.73 74.23 C444.32 48.14, 468.13 23.42, 484.37 1.03 M431.36 74.2 C444.81 54.64, 466.01 37.83, 493.03 3.26 M431.36 74.2 C455.66 46.97, 475.04 21.9, 493.03 3.26 M441.99 74.16 C459.85 51.09, 479.95 30.99, 501.04 6.24 M441.99 74.16 C460.54 53.46, 476.47 36.31, 501.04 6.24 M452.62 74.13 C464.67 60.44, 476.15 48.36, 505.76 13 M452.62 74.13 C467.58 59.11, 482.92 42.58, 505.76 13 M462.6 74.85 C477.91 55.82, 489 43.06, 505.9 25.04 M462.6 74.85 C479.1 60.6, 491.22 44.79, 505.9 25.04 M473.23 74.82 C484.3 59, 499.36 43.84, 506.68 36.33 M473.23 74.82 C485.55 60.7, 496.5 50.76, 506.68 36.33 M487.14 71.01 C491.55 64.07, 505.06 57.58, 506.82 48.37 M487.14 71.01 C494.51 64.79, 499.99 56.37, 506.82 48.37" stroke="#ffc9c9" stroke-width="1" fill="none"></path><path d="M17.67 0 M17.67 0 C166.38 -1.31, 314.98 -1.32, 486.13 0 M486.13 0 C499.79 2.46, 503.95 7.23, 503.8 17.67 M503.8 17.67 C501.08 27.06, 504.04 35.82, 503.8 53.01 M503.8 53.01 C502.46 66.86, 494.91 70.95, 486.13 70.68 M486.13 70.68 C378.37 73, 271.43 74.39, 17.67 70.68 M17.67 70.68 C7.8 67.45, 3.28 63.76, 0 53.01 M0 53.01 C2.56 38.02, 1.09 29.66, 0 17.67 M0 17.67 C-0.71 7.47, 5.3 -1.33, 17.67 0" stroke="#000000" stroke-width="2.5" fill="none" stroke-dasharray="1.5 8"></path></g><g transform="translate(1033.8748168945312 72.49674479166663) rotate(0 52.50994873046875 12.5)"><text x="52.50994873046875" y="0" font-family="Virgil, Segoe UI Emoji" font-size="20px" fill="#000000" text-anchor="middle" style="white-space: pre;" direction="ltr" dominant-baseline="text-before-edge">ruby queue</text></g><g mask="url(#mask-Mt6hkUVI__CtPBFwZBEOw)" stroke-linecap="round"><g transform="translate(625.5234374999998 269.07682291666663) rotate(0 99.678428151086 -74.8630783040076)"><path d="M-0.4 -0.41 C33.16 -25.73, 166.13 -124.33, 199.76 -149.31" stroke="#000000" stroke-width="2.5" fill="none" stroke-dasharray="1.5 8"></path></g><g transform="translate(625.5234374999998 269.07682291666663) rotate(0 99.678428151086 -74.8630783040076)"><path d="M197.81 -145.56 L194.24 -133.56 L186.92 -148.86 L202.31 -147.56" stroke="none" stroke-width="0" fill="#000000" fill-rule="evenodd"></path><path d="M199.31 -149.67 C196.4 -144.75, 193.63 -144.67, 193.84 -135.12 M191.3 -134.62 C189.11 -141.96, 189.26 -145.01, 185 -146.12 M183.69 -144.86 C189.63 -145.83, 194.19 -145.46, 198.08 -148.13 M199.76 -149.31 C199.76 -149.31, 199.76 -149.31, 199.76 -149.31" stroke="#000000" stroke-width="2.5" fill="none"></path></g></g><mask id="mask-Mt6hkUVI__CtPBFwZBEOw"><rect x="0" y="0" fill="#fff" width="925.6113281249998" height="516.6451822916665"></rect><rect x="627.7474822998045" y="182.79264322916669" fill="#000" width="195.63980102539062" height="25" opacity="1"></rect></mask><g transform="translate(627.7474822998045 182.79264322916669) rotate(0 97.45438335128131 11.421101383492342)"><text x="97.81990051269531" y="0" font-family="Virgil, Segoe UI Emoji" font-size="20px" fill="#000000" text-anchor="middle" style="white-space: pre;" direction="ltr" dominant-baseline="text-before-edge">ruby.info routing key</text></g><g stroke-linecap="round" transform="translate(863.75 411.02408854166663) rotate(0 251.900390625 35.337890625)"><path d="M4.7 4.09 C4.7 4.09, 4.7 4.09, 4.7 4.09 M4.7 4.09 C4.7 4.09, 4.7 4.09, 4.7 4.09 M2.21 19.15 C2.69 15.64, 7.99 5.01, 18.61 0.28 M2.21 19.15 C9 12.85, 14.71 7.09, 18.61 0.28 M2.35 31.19 C14.5 23.12, 16.43 14.14, 29.24 0.25 M2.35 31.19 C14.64 21.42, 21.5 9.28, 29.24 0.25 M2.48 43.23 C11.67 31.5, 29.12 8.53, 39.22 0.97 M2.48 43.23 C14.69 24.9, 29.68 9.03, 39.22 0.97 M2.61 55.27 C20.04 42.15, 28.31 23.07, 49.85 0.93 M2.61 55.27 C13.21 43.6, 24.8 29.53, 49.85 0.93 M5.37 64.29 C23.27 49.13, 36.53 26.69, 60.48 0.9 M5.37 64.29 C23.99 46.95, 38.26 26.06, 60.48 0.9 M10.09 71.05 C25.67 57.93, 34.93 41.76, 71.11 0.86 M10.09 71.05 C24 54.19, 35.24 41.45, 71.11 0.86 M18.1 74.03 C32.99 57.21, 52.88 34.21, 81.74 0.83 M18.1 74.03 C42.38 48.65, 68.8 19.68, 81.74 0.83 M28.73 74 C49.93 48.32, 68.34 30.94, 92.37 0.79 M28.73 74 C50.06 49.56, 73.05 24.03, 92.37 0.79 M39.36 73.97 C58.51 49.66, 82 29.77, 103 0.76 M39.36 73.97 C55.53 56.69, 69.03 38.64, 103 0.76 M49.99 73.93 C71.08 50.25, 85.45 33.67, 113.63 0.72 M49.99 73.93 C68.23 55.62, 84.08 34.06, 113.63 0.72 M60.62 73.9 C85.11 43.67, 112.64 16.85, 124.26 0.69 M60.62 73.9 C78.72 55.01, 90.69 39.38, 124.26 0.69 M70.59 74.62 C89.37 53.17, 104.31 35.18, 134.89 0.66 M70.59 74.62 C97 47.15, 118.41 20.06, 134.89 0.66 M81.22 74.58 C107.99 41.69, 131.89 13.85, 145.52 0.62 M81.22 74.58 C106.14 45.48, 131.21 17.2, 145.52 0.62 M91.85 74.55 C113.55 54.35, 132.94 22.49, 156.15 0.59 M91.85 74.55 C115.6 50.33, 134.72 24.03, 156.15 0.59 M102.48 74.51 C122.29 52, 135.54 35.16, 166.78 0.55 M102.48 74.51 C117.15 55.52, 134.99 35.47, 166.78 0.55 M113.12 74.48 C132.17 51.13, 150.14 35.86, 177.41 0.52 M113.12 74.48 C130.16 55.49, 145.67 37.94, 177.41 0.52 M123.75 74.44 C138.74 54.49, 152.02 39.53, 188.04 0.48 M123.75 74.44 C138.69 55.63, 156.45 37.9, 188.04 0.48 M134.38 74.41 C149.81 51.82, 166.74 33.92, 198.67 0.45 M134.38 74.41 C157.91 45.22, 179 20.12, 198.67 0.45 M145.01 74.38 C160.58 54.34, 170.02 45.98, 209.3 0.41 M145.01 74.38 C168.3 49.4, 186.8 23.42, 209.3 0.41 M155.64 74.34 C175.2 53.83, 192.99 35.39, 219.93 0.38 M155.64 74.34 C172.12 56.79, 184.8 36.01, 219.93 0.38 M166.27 74.31 C187.97 51.06, 207.3 25.58, 230.56 0.35 M166.27 74.31 C189.12 47.82, 212.52 22.09, 230.56 0.35 M176.9 74.27 C200.75 50.76, 221.08 24.26, 240.53 1.07 M176.9 74.27 C190.04 54.96, 207.7 36.23, 240.53 1.07 M187.53 74.24 C203.99 52.87, 219.51 39.77, 251.16 1.03 M187.53 74.24 C206.7 54.21, 223.27 34.09, 251.16 1.03 M198.16 74.2 C216.64 56.19, 228.97 34.64, 261.79 1 M198.16 74.2 C215.34 53.23, 234.39 33.18, 261.79 1 M208.79 74.17 C230.81 56.48, 243.83 34.02, 272.42 0.96 M208.79 74.17 C231.66 48.82, 257.63 22.1, 272.42 0.96 M219.42 74.13 C237.8 48.46, 266.71 21.6, 283.05 0.93 M219.42 74.13 C241.85 47.99, 265.35 20.63, 283.05 0.93 M230.05 74.1 C255.3 50.06, 281.56 20.59, 293.68 0.89 M230.05 74.1 C255.09 47.77, 276.63 19.08, 293.68 0.89 M240.68 74.07 C265.93 46.43, 289.96 18, 304.31 0.86 M240.68 74.07 C264.38 52.27, 282.41 27.44, 304.31 0.86 M251.31 74.03 C277.47 42.78, 297.95 19.65, 314.94 0.82 M251.31 74.03 C275.62 44.59, 300.28 17.5, 314.94 0.82 M261.94 74 C281.49 46.38, 311.64 18.96, 325.57 0.79 M261.94 74 C282.09 49.79, 304.51 24.53, 325.57 0.79 M271.91 74.72 C286.89 56.59, 305.6 37.12, 336.2 0.75 M271.91 74.72 C295.15 48.18, 320.21 17.21, 336.2 0.75 M282.54 74.68 C297.26 54.99, 318.02 31.3, 346.83 0.72 M282.54 74.68 C298.5 52.19, 319.33 33.12, 346.83 0.72 M293.17 74.65 C309.8 48.99, 334.12 30.25, 357.46 0.69 M293.17 74.65 C307.67 60, 321.05 43.28, 357.46 0.69 M303.8 74.61 C315.31 56.43, 333.7 39.59, 368.09 0.65 M303.8 74.61 C320.02 55.91, 336.91 33.96, 368.09 0.65 M314.43 74.58 C331.78 58.17, 347.5 36.35, 378.72 0.62 M314.43 74.58 C336.15 50.89, 355.83 29.22, 378.72 0.62 M325.06 74.54 C341.42 56.69, 352.68 42.86, 389.35 0.58 M325.06 74.54 C345.52 53.51, 361.25 31.13, 389.35 0.58 M335.69 74.51 C365.25 49.44, 386.23 20.27, 399.98 0.55 M335.69 74.51 C356.21 49.24, 373.06 26.51, 399.98 0.55 M346.32 74.47 C364.69 56.3, 377.64 34.5, 410.61 0.51 M346.32 74.47 C368.9 51.2, 390.52 23.31, 410.61 0.51 M356.95 74.44 C380.15 48.62, 398.59 23.59, 421.24 0.48 M356.95 74.44 C373.74 55.68, 389.33 33.64, 421.24 0.48 M367.58 74.41 C393.94 48.65, 414.88 17.33, 431.22 1.2 M367.58 74.41 C390.47 48.62, 413.89 22.94, 431.22 1.2 M378.21 74.37 C397.53 51.92, 425.64 18.76, 441.85 1.16 M378.21 74.37 C389.27 59.27, 406.24 42.67, 441.85 1.16 M388.84 74.34 C417.77 47.88, 436.86 13.55, 452.48 1.13 M388.84 74.34 C403.19 56.15, 421.3 40.9, 452.48 1.13 M399.47 74.3 C419.4 43.4, 450.09 15.9, 463.11 1.1 M399.47 74.3 C412.29 58.38, 426.84 42.81, 463.11 1.1 M410.1 74.27 C432.99 52.14, 452.53 31.63, 473.74 1.06 M410.1 74.27 C435.1 44.65, 460.15 17.49, 473.74 1.06 M420.73 74.23 C433.21 60.76, 445.99 42.71, 484.37 1.03 M420.73 74.23 C444.51 46.84, 464.46 24.26, 484.37 1.03 M431.36 74.2 C451.34 49.57, 480.35 16.9, 493.03 3.26 M431.36 74.2 C445.98 54.52, 464.95 36.69, 493.03 3.26 M441.99 74.16 C462.04 50.37, 485.57 30.37, 501.04 6.24 M441.99 74.16 C456.87 58.6, 471.34 40.04, 501.04 6.24 M452.62 74.13 C471.85 57.57, 487.8 36.3, 505.76 13 M452.62 74.13 C472.14 53.04, 490.35 31.47, 505.76 13 M462.6 74.85 C471.26 55.44, 491.08 44.45, 505.9 25.04 M462.6 74.85 C481.69 57.88, 495.02 35.88, 505.9 25.04 M473.23 74.82 C488.16 60.28, 502.43 44.13, 506.68 36.33 M473.23 74.82 C481.37 68.29, 487.3 59.55, 506.68 36.33 M487.14 71.01 C492.73 60.47, 499.62 52.54, 506.82 48.37 M487.14 71.01 C491.59 66.21, 498.08 59.9, 506.82 48.37" stroke="#ffc9c9" stroke-width="1" fill="none"></path><path d="M17.67 0 M17.67 0 C163.4 -3.09, 309.46 -2.74, 486.13 0 M486.13 0 C497.8 -2.83, 501.65 5.55, 503.8 17.67 M503.8 17.67 C504.24 30.42, 506.16 44.88, 503.8 53.01 M503.8 53.01 C504.23 65.63, 494.13 70.98, 486.13 70.68 M486.13 70.68 C381.76 74.12, 279.43 73.06, 17.67 70.68 M17.67 70.68 C5.38 69.95, -1.21 67.53, 0 53.01 M0 53.01 C-1.01 42.33, -1.34 22.19, 0 17.67 M0 17.67 C-1.1 8.88, 9.38 3.55, 17.67 0" stroke="#000000" stroke-width="2.5" fill="none" stroke-dasharray="1.5 8"></path></g><g transform="translate(1061.5204391479492 433.86197916666663) rotate(0 54.12995147705078 12.5)"><text x="54.12995147705078" y="0" font-family="Virgil, Segoe UI Emoji" font-size="20px" fill="#000000" text-anchor="middle" style="white-space: pre;" direction="ltr" dominant-baseline="text-before-edge">node queue</text></g><g mask="url(#mask-HIuJ35GO9s0b_ZUTF3OJ0)" stroke-linecap="round"><g transform="translate(632.9257812499998 283.7104090331742) rotate(0 110.0276087183505 84.62251381091778)"><path d="M0.62 0.6 C37.43 28.78, 183.24 141.16, 219.43 168.64" stroke="#000000" stroke-width="2.5" fill="none" stroke-dasharray="1.5 8"></path></g><g transform="translate(632.9257812499998 283.7104090331742) rotate(0 110.0276087183505 84.62251381091778)"><path d="M217.54 170.22 L205.67 162.8 L212.18 157.92 L221.28 171.37" stroke="none" stroke-width="0" fill="#000000" fill-rule="evenodd"></path><path d="M220.08 170.54 C218.1 168, 211.1 166.86, 202.58 165.09 M203.15 163.21 C206.77 161.19, 211.86 158.84, 211.45 155.62 M213.57 152.79 C212.92 158.01, 215.06 162.38, 217 166.38 M219.43 168.64 C219.43 168.64, 219.43 168.64, 219.43 168.64" stroke="#000000" stroke-width="2.5" fill="none"></path></g></g><mask id="mask-HIuJ35GO9s0b_ZUTF3OJ0"><rect x="0" y="0" fill="#fff" width="950.5917968749998" height="550.1947840331743"></rect><rect x="642.3188858032224" y="354.4525965331743" fill="#000" width="198.8798065185547" height="25" opacity="1"></rect></mask><g transform="translate(642.3188858032224 354.45259653317424) rotate(0 100.63450416512785 13.880326310917724)"><text x="99.43990325927734" y="0" font-family="Virgil, Segoe UI Emoji" font-size="20px" fill="#000000" text-anchor="middle" style="white-space: pre;" direction="ltr" dominant-baseline="text-before-edge">node.info routing key</text></g><g stroke-linecap="round" transform="translate(1421.708984375 10) rotate(0 79.5 57)"><path d="M28.5 0 M28.5 0 C57.37 2.42, 86.07 2.89, 130.5 0 M130.5 0 C152.39 -2.46, 157.61 12.71, 159 28.5 M159 28.5 C155.59 54.04, 160.28 71.82, 159 85.5 M159 85.5 C157.11 102.73, 148.76 110.81, 130.5 114 M130.5 114 C111.57 111.34, 87.57 111.78, 28.5 114 M28.5 114 C8.29 117.11, 1.93 102.06, 0 85.5 M0 85.5 C1.73 72.77, -2.92 60.1, 0 28.5 M0 28.5 C-2.37 12.22, 11.17 3.53, 28.5 0" stroke="#000000" stroke-width="2.5" fill="none" stroke-dasharray="8 10"></path></g><g transform="translate(1448.2290420532227 29.5) rotate(0 52.979942321777344 37.5)"><text x="52.979942321777344" y="0" font-family="Virgil, Segoe UI Emoji" font-size="20px" fill="#000000" text-anchor="middle" style="white-space: pre;" direction="ltr" dominant-baseline="text-before-edge">bunny </text><text x="52.979942321777344" y="25" font-family="Virgil, Segoe UI Emoji" font-size="20px" fill="#000000" text-anchor="middle" style="white-space: pre;" direction="ltr" dominant-baseline="text-before-edge">subscriber </text><text x="52.979942321777344" y="50" font-family="Virgil, Segoe UI Emoji" font-size="20px" fill="#000000" text-anchor="middle" style="white-space: pre;" direction="ltr" dominant-baseline="text-before-edge">(ruby)</text></g><g stroke-linecap="round" transform="translate(1439.1243489583328 386.0611979166667) rotate(0 83.00000000000011 56.99999999999997)"><path d="M28.5 0 M28.5 0 C47.99 -1.19, 75.98 5.59, 137.5 0 M137.5 0 C157.86 -2.55, 168.64 10.32, 166 28.5 M166 28.5 C164.46 44.49, 161.76 53.57, 166 85.5 M166 85.5 C166.25 106.25, 155.9 112.55, 137.5 114 M137.5 114 C92.18 115.44, 47.33 111.09, 28.5 114 M28.5 114 C6.59 111.04, 1.24 103.67, 0 85.5 M0 85.5 C-2.29 72.4, -2.62 63.25, 0 28.5 M0 28.5 C-1.48 7.06, 6.62 -3.44, 28.5 0" stroke="#000000" stroke-width="2.5" fill="none" stroke-dasharray="8 10"></path></g><g transform="translate(1469.1444066365555 405.5611979166667) rotate(0 52.979942321777344 37.49999999999997)"><text x="52.979942321777344" y="0" font-family="Virgil, Segoe UI Emoji" font-size="20px" fill="#000000" text-anchor="middle" style="white-space: pre;" direction="ltr" dominant-baseline="text-before-edge">ampqlib </text><text x="52.979942321777344" y="25" font-family="Virgil, Segoe UI Emoji" font-size="20px" fill="#000000" text-anchor="middle" style="white-space: pre;" direction="ltr" dominant-baseline="text-before-edge">subscriber </text><text x="52.979942321777344" y="50" font-family="Virgil, Segoe UI Emoji" font-size="20px" fill="#000000" text-anchor="middle" style="white-space: pre;" direction="ltr" dominant-baseline="text-before-edge">(Node.js)</text></g><g stroke-linecap="round" transform="translate(1731.8196614583335 175.14973958333331) rotate(0 92.982421875 56.915364583333314)"><path d="M28.46 0 M28.46 0 C61.83 -2.8, 102.86 0.88, 157.51 0 M157.51 0 C174.15 -1.9, 187.07 9.87, 185.96 28.46 M185.96 28.46 C184.59 44.64, 187.33 66.67, 185.96 85.37 M185.96 85.37 C188.28 103.98, 173.07 110.7, 157.51 113.83 M157.51 113.83 C119.21 117.16, 76.37 113.4, 28.46 113.83 M28.46 113.83 C6.59 116.9, 3.44 103.28, 0 85.37 M0 85.37 C1.35 66.72, -0.44 52.98, 0 28.46 M0 28.46 C-0.07 7.08, 5.84 -0.21, 28.46 0" stroke="#000000" stroke-width="2.5" fill="none" stroke-dasharray="8 10"></path></g><g transform="translate(1760.752141316732 219.56510416666663) rotate(0 64.04994201660156 12.5)"><text x="64.04994201660156" y="0" font-family="Virgil, Segoe UI Emoji" font-size="20px" fill="#000000" text-anchor="middle" style="white-space: pre;" direction="ltr" dominant-baseline="text-before-edge">HTTP Server</text></g><g stroke-linecap="round"><g transform="translate(1347.399739583334 77.18710757900529) rotate(0 37.2576551893103 -2.0212825420314715)"><path d="M2.73 -2.25 C14.74 -2.67, 60.21 -1.62, 71.78 -1.7" stroke="#000000" stroke-width="2.5" fill="none" stroke-dasharray="1.5 8"></path></g><g transform="translate(1347.399739583334 77.18710757900529) rotate(0 37.2576551893103 -2.0212825420314715)"><path d="M69.52 1.67 L55.79 3.14 L56.48 -9.77 L73.84 -1.34" stroke="none" stroke-width="0" fill="#000000" fill-rule="evenodd"></path><path d="M69.37 -3.33 C70.69 -0.87, 65.66 1.04, 59.92 3.67 M59.98 5.24 C59.62 2.99, 56.75 0.19, 59.75 -10.41 M60.72 -8.85 C59.76 -8.57, 66.92 -5.36, 71.24 -0.75 M71.78 -1.7 C71.78 -1.7, 71.78 -1.7, 71.78 -1.7" stroke="#000000" stroke-width="2.5" fill="none"></path></g></g><mask></mask><g stroke-linecap="round"><g transform="translate(1375.5052083333335 443.60807291666663) rotate(0 30.660661987587787 0.7669227182331326)"><path d="M1.77 1.15 C12.02 1.49, 50.18 0.18, 59.55 0.34" stroke="#000000" stroke-width="2.5" fill="none" stroke-dasharray="1.5 8"></path></g><g transform="translate(1375.5052083333335 443.60807291666663) rotate(0 30.660661987587787 0.7669227182331326)"><path d="M58.19 -0.25 L42.11 10.55 L43.85 -6.38 L62.71 -0.08" stroke="none" stroke-width="0" fill="#000000" fill-rule="evenodd"></path><path d="M60.79 -0.18 C54.32 -0.15, 53.07 2.67, 44.82 6.22 M44.86 6.05 C46.94 5.73, 44.78 0.21, 46.28 -6.87 M44.58 -7.42 C49.62 -5.04, 52.72 0.72, 61.32 1.79 M59.55 0.34 C59.55 0.34, 59.55 0.34, 59.55 0.34" stroke="#000000" stroke-width="2.5" fill="none"></path></g></g><mask></mask><g mask="url(#mask-3PfujOrjcjWWrjOJXYIVe)" stroke-linecap="round"><g transform="translate(1590.5703125 71.13411458333331) rotate(0 64.19412600609178 68.19629962558378)"><path d="M-1.14 -1.61 C20.25 21.12, 107.94 114.4, 129.53 138" stroke="#000000" stroke-width="2.5" fill="none" stroke-dasharray="1.5 8"></path></g><g transform="translate(1590.5703125 71.13411458333331) rotate(0 64.19412600609178 68.19629962558378)"><path d="M128.83 135.13 L112.51 132.01 L122.94 121.18 L129.99 137.05" stroke="none" stroke-width="0" fill="#000000" fill-rule="evenodd"></path><path d="M127.8 138.47 C123.47 135.18, 120.86 131.19, 114.32 130.78 M118.1 133.85 C119.69 131.11, 121.56 126.88, 123.73 124.12 M125.27 122.24 C128.92 126.26, 126.83 127.96, 132.31 136.48 M129.53 138 C129.53 138, 129.53 138, 129.53 138" stroke="#000000" stroke-width="2.5" fill="none"></path></g></g><mask id="mask-3PfujOrjcjWWrjOJXYIVe"><rect x="0" y="0" fill="#fff" width="1819.6653645833335" height="310.2729483192628"></rect><rect x="1599.2478739420576" y="128.20353145129806" fill="#000" width="111.73992919921875" height="25" opacity="1"></rect></mask><g transform="translate(1599.2478739420576 128.2035314512981) rotate(0 55.516564564034184 11.126882757619029)"><text x="55.869964599609375" y="0" font-family="Virgil, Segoe UI Emoji" font-size="20px" fill="#000000" text-anchor="middle" style="white-space: pre;" direction="ltr" dominant-baseline="text-before-edge">HTTP GET</text></g><g mask="url(#mask-pyEra-EESHgSXBhXxi6WN)" stroke-linecap="round"><g transform="translate(1617.6666666666665 437.37760416666663) rotate(0 56.003511726980605 -76.95964567872386)"><path d="M-2.18 -0.24 C16.93 -25.52, 94.51 -128.29, 114.19 -153.67" stroke="#000000" stroke-width="2.5" fill="none" stroke-dasharray="1.5 8"></path></g><g transform="translate(1617.6666666666665 437.37760416666663) rotate(0 56.003511726980605 -76.95964567872386)"><path d="M111.08 -152.74 L111.15 -143.01 L98.93 -144.21 L115.15 -150.61" stroke="none" stroke-width="0" fill="#000000" fill-rule="evenodd"></path><path d="M113.93 -155.16 C111.16 -149.24, 111.45 -146.58, 113.79 -141.02 M112.99 -139.73 C105.53 -142.24, 102.13 -142.26, 102.36 -147.47 M102.59 -145.45 C103.6 -151.67, 111.61 -154.47, 114.03 -151.57 M114.19 -153.67 C114.19 -153.67, 114.19 -153.67, 114.19 -153.67" stroke="#000000" stroke-width="2.5" fill="none"></path></g></g><mask id="mask-pyEra-EESHgSXBhXxi6WN"><rect x="0" y="0" fill="#fff" width="1833.2395833333335" height="689.265625"></rect><rect x="1619.5831604003906" y="348.93359375" fill="#000" width="111.73992919921875" height="25" opacity="1"></rect></mask><g transform="translate(1619.5831604003906 348.93359374999994) rotate(0 54.087017993256495 11.484364737942826)"><text x="55.869964599609375" y="0" font-family="Virgil, Segoe UI Emoji" font-size="20px" fill="#000000" text-anchor="middle" style="white-space: pre;" direction="ltr" dominant-baseline="text-before-edge">HTTP GET</text></g></svg>